<mxfile host="app.diagrams.net" modified="2023-04-17T09:40:27.921Z" agent="Mozilla/5.0 (Windows NT 10.0; Win64; x64) AppleWebKit/537.36 (KHTML, like Gecko) Chrome/112.0.0.0 Safari/537.36" etag="O-pud3r2VXGR4U4Eadca" version="21.1.2" type="device">
  <diagram name="Pagina-1" id="DIwncrbuSzg8MAJsGhDx">
    <mxGraphModel dx="1434" dy="731" grid="1" gridSize="10" guides="1" tooltips="1" connect="1" arrows="1" fold="1" page="1" pageScale="1" pageWidth="827" pageHeight="1169" math="0" shadow="0">
      <root>
        <mxCell id="0" />
        <mxCell id="1" parent="0" />
        <mxCell id="gFPZSpNHKlJL1bnIkIFu-1" value="@Entity" style="text;html=1;strokeColor=#d6b656;fillColor=#fff2cc;align=center;verticalAlign=middle;whiteSpace=wrap;rounded=0;" vertex="1" parent="1">
          <mxGeometry x="180" y="40" width="70" height="30" as="geometry" />
        </mxCell>
        <mxCell id="gFPZSpNHKlJL1bnIkIFu-10" style="edgeStyle=orthogonalEdgeStyle;rounded=0;orthogonalLoop=1;jettySize=auto;html=1;exitX=1;exitY=0.5;exitDx=0;exitDy=0;entryX=0;entryY=0;entryDx=0;entryDy=52.5;entryPerimeter=0;" edge="1" parent="1" source="gFPZSpNHKlJL1bnIkIFu-2" target="gFPZSpNHKlJL1bnIkIFu-8">
          <mxGeometry relative="1" as="geometry" />
        </mxCell>
        <mxCell id="gFPZSpNHKlJL1bnIkIFu-11" style="edgeStyle=orthogonalEdgeStyle;rounded=0;orthogonalLoop=1;jettySize=auto;html=1;exitX=0.5;exitY=1;exitDx=0;exitDy=0;" edge="1" parent="1" source="gFPZSpNHKlJL1bnIkIFu-2" target="gFPZSpNHKlJL1bnIkIFu-3">
          <mxGeometry relative="1" as="geometry" />
        </mxCell>
        <mxCell id="gFPZSpNHKlJL1bnIkIFu-2" value="@Repository" style="text;html=1;strokeColor=#d6b656;fillColor=#fff2cc;align=center;verticalAlign=middle;whiteSpace=wrap;rounded=0;" vertex="1" parent="1">
          <mxGeometry x="180" y="80" width="70" height="30" as="geometry" />
        </mxCell>
        <mxCell id="gFPZSpNHKlJL1bnIkIFu-12" style="edgeStyle=orthogonalEdgeStyle;rounded=0;orthogonalLoop=1;jettySize=auto;html=1;exitX=0.25;exitY=1;exitDx=0;exitDy=0;entryX=0.5;entryY=0;entryDx=0;entryDy=0;" edge="1" parent="1" source="gFPZSpNHKlJL1bnIkIFu-3" target="gFPZSpNHKlJL1bnIkIFu-4">
          <mxGeometry relative="1" as="geometry" />
        </mxCell>
        <mxCell id="gFPZSpNHKlJL1bnIkIFu-13" style="edgeStyle=orthogonalEdgeStyle;rounded=0;orthogonalLoop=1;jettySize=auto;html=1;exitX=0.75;exitY=1;exitDx=0;exitDy=0;entryX=0.5;entryY=0;entryDx=0;entryDy=0;" edge="1" parent="1" source="gFPZSpNHKlJL1bnIkIFu-3" target="gFPZSpNHKlJL1bnIkIFu-6">
          <mxGeometry relative="1" as="geometry" />
        </mxCell>
        <mxCell id="gFPZSpNHKlJL1bnIkIFu-3" value="@Service" style="text;html=1;strokeColor=#d6b656;fillColor=#fff2cc;align=center;verticalAlign=middle;whiteSpace=wrap;rounded=0;" vertex="1" parent="1">
          <mxGeometry x="180" y="130" width="70" height="30" as="geometry" />
        </mxCell>
        <mxCell id="gFPZSpNHKlJL1bnIkIFu-17" style="edgeStyle=orthogonalEdgeStyle;rounded=0;orthogonalLoop=1;jettySize=auto;html=1;exitX=0.5;exitY=1;exitDx=0;exitDy=0;" edge="1" parent="1" source="gFPZSpNHKlJL1bnIkIFu-4" target="gFPZSpNHKlJL1bnIkIFu-15">
          <mxGeometry relative="1" as="geometry" />
        </mxCell>
        <mxCell id="gFPZSpNHKlJL1bnIkIFu-4" value="@Controller" style="text;html=1;strokeColor=#d6b656;fillColor=#fff2cc;align=center;verticalAlign=middle;whiteSpace=wrap;rounded=0;" vertex="1" parent="1">
          <mxGeometry x="100" y="190" width="90" height="30" as="geometry" />
        </mxCell>
        <mxCell id="gFPZSpNHKlJL1bnIkIFu-20" style="edgeStyle=orthogonalEdgeStyle;rounded=0;orthogonalLoop=1;jettySize=auto;html=1;exitX=0.5;exitY=1;exitDx=0;exitDy=0;" edge="1" parent="1" source="gFPZSpNHKlJL1bnIkIFu-6" target="gFPZSpNHKlJL1bnIkIFu-19">
          <mxGeometry relative="1" as="geometry" />
        </mxCell>
        <mxCell id="gFPZSpNHKlJL1bnIkIFu-6" value="@RestController" style="text;html=1;strokeColor=#d6b656;fillColor=#fff2cc;align=center;verticalAlign=middle;whiteSpace=wrap;rounded=0;" vertex="1" parent="1">
          <mxGeometry x="230" y="190" width="100" height="30" as="geometry" />
        </mxCell>
        <mxCell id="gFPZSpNHKlJL1bnIkIFu-7" value="" style="endArrow=none;dashed=1;html=1;dashPattern=1 3;strokeWidth=2;rounded=0;" edge="1" parent="1">
          <mxGeometry width="50" height="50" relative="1" as="geometry">
            <mxPoint x="60" y="240" as="sourcePoint" />
            <mxPoint x="430" y="240" as="targetPoint" />
          </mxGeometry>
        </mxCell>
        <mxCell id="gFPZSpNHKlJL1bnIkIFu-8" value="" style="shape=cylinder3;whiteSpace=wrap;html=1;boundedLbl=1;backgroundOutline=1;size=15;" vertex="1" parent="1">
          <mxGeometry x="580" y="40" width="60" height="80" as="geometry" />
        </mxCell>
        <mxCell id="gFPZSpNHKlJL1bnIkIFu-9" value="" style="endArrow=none;dashed=1;html=1;dashPattern=1 3;strokeWidth=2;rounded=0;" edge="1" parent="1">
          <mxGeometry width="50" height="50" relative="1" as="geometry">
            <mxPoint x="460" y="250" as="sourcePoint" />
            <mxPoint x="460" y="20" as="targetPoint" />
          </mxGeometry>
        </mxCell>
        <mxCell id="gFPZSpNHKlJL1bnIkIFu-14" value="@Autowired" style="text;html=1;strokeColor=#b85450;fillColor=#f8cecc;align=center;verticalAlign=middle;whiteSpace=wrap;rounded=0;" vertex="1" parent="1">
          <mxGeometry x="324" y="130" width="90" height="30" as="geometry" />
        </mxCell>
        <mxCell id="gFPZSpNHKlJL1bnIkIFu-18" value="" style="edgeStyle=orthogonalEdgeStyle;rounded=0;orthogonalLoop=1;jettySize=auto;html=1;" edge="1" parent="1" source="gFPZSpNHKlJL1bnIkIFu-15" target="gFPZSpNHKlJL1bnIkIFu-16">
          <mxGeometry relative="1" as="geometry" />
        </mxCell>
        <mxCell id="gFPZSpNHKlJL1bnIkIFu-15" value="" style="dashed=0;outlineConnect=0;html=1;align=center;labelPosition=center;verticalLabelPosition=bottom;verticalAlign=top;shape=mxgraph.weblogos.html5" vertex="1" parent="1">
          <mxGeometry x="125.80000000000001" y="280" width="38.4" height="44" as="geometry" />
        </mxCell>
        <mxCell id="gFPZSpNHKlJL1bnIkIFu-16" value="" style="sketch=0;outlineConnect=0;fontColor=#232F3E;gradientColor=none;fillColor=#232F3D;strokeColor=none;dashed=0;verticalLabelPosition=bottom;verticalAlign=top;align=center;html=1;fontSize=12;fontStyle=0;aspect=fixed;pointerEvents=1;shape=mxgraph.aws4.client;" vertex="1" parent="1">
          <mxGeometry x="106" y="410" width="78" height="76" as="geometry" />
        </mxCell>
        <mxCell id="gFPZSpNHKlJL1bnIkIFu-22" value="" style="edgeStyle=orthogonalEdgeStyle;rounded=0;orthogonalLoop=1;jettySize=auto;html=1;" edge="1" parent="1" source="gFPZSpNHKlJL1bnIkIFu-19" target="gFPZSpNHKlJL1bnIkIFu-21">
          <mxGeometry relative="1" as="geometry" />
        </mxCell>
        <mxCell id="gFPZSpNHKlJL1bnIkIFu-19" value="" style="dashed=0;outlineConnect=0;html=1;align=center;labelPosition=center;verticalLabelPosition=bottom;verticalAlign=top;shape=mxgraph.weblogos.json" vertex="1" parent="1">
          <mxGeometry x="260" y="278.2" width="40" height="45.8" as="geometry" />
        </mxCell>
        <mxCell id="gFPZSpNHKlJL1bnIkIFu-23" value="" style="edgeStyle=orthogonalEdgeStyle;rounded=0;orthogonalLoop=1;jettySize=auto;html=1;" edge="1" parent="1" source="gFPZSpNHKlJL1bnIkIFu-21" target="gFPZSpNHKlJL1bnIkIFu-16">
          <mxGeometry relative="1" as="geometry" />
        </mxCell>
        <mxCell id="gFPZSpNHKlJL1bnIkIFu-21" value="" style="dashed=0;outlineConnect=0;html=1;align=center;labelPosition=center;verticalLabelPosition=bottom;verticalAlign=top;shape=mxgraph.weblogos.html5" vertex="1" parent="1">
          <mxGeometry x="261.6" y="370" width="38.4" height="44" as="geometry" />
        </mxCell>
        <mxCell id="gFPZSpNHKlJL1bnIkIFu-24" value="" style="dashed=0;outlineConnect=0;html=1;align=center;labelPosition=center;verticalLabelPosition=bottom;verticalAlign=top;shape=mxgraph.weblogos.html5" vertex="1" parent="1">
          <mxGeometry x="130" y="420" width="34.2" height="34" as="geometry" />
        </mxCell>
        <mxCell id="gFPZSpNHKlJL1bnIkIFu-25" value="" style="shape=image;verticalLabelPosition=bottom;labelBackgroundColor=default;verticalAlign=top;aspect=fixed;imageAspect=0;image=https://upload.wikimedia.org/wikipedia/commons/thumb/c/cf/Angular_full_color_logo.svg/1200px-Angular_full_color_logo.svg.png;" vertex="1" parent="1">
          <mxGeometry x="245" y="416" width="70" height="70" as="geometry" />
        </mxCell>
        <mxCell id="gFPZSpNHKlJL1bnIkIFu-26" value="" style="shape=image;verticalLabelPosition=bottom;labelBackgroundColor=default;verticalAlign=top;aspect=fixed;imageAspect=0;image=https://g.foolcdn.com/art/companylogos/square/mdb.png;" vertex="1" parent="1">
          <mxGeometry x="565" y="130" width="90" height="90" as="geometry" />
        </mxCell>
        <mxCell id="gFPZSpNHKlJL1bnIkIFu-27" value="" style="strokeWidth=1;shadow=0;dashed=0;align=center;html=1;shape=mxgraph.mockup.containers.browserWindow;rSize=0;strokeColor=#666666;strokeColor2=#008cff;strokeColor3=#c4c4c4;mainText=,;recursiveResize=0;" vertex="1" parent="1">
          <mxGeometry x="90" y="550" width="550" height="380" as="geometry" />
        </mxCell>
        <mxCell id="gFPZSpNHKlJL1bnIkIFu-28" value="Page 1" style="strokeWidth=1;shadow=0;dashed=0;align=center;html=1;shape=mxgraph.mockup.containers.anchor;fontSize=17;fontColor=#666666;align=left;whiteSpace=wrap;" vertex="1" parent="gFPZSpNHKlJL1bnIkIFu-27">
          <mxGeometry x="60" y="12" width="110" height="26" as="geometry" />
        </mxCell>
        <mxCell id="gFPZSpNHKlJL1bnIkIFu-29" value="https://www.draw.io" style="strokeWidth=1;shadow=0;dashed=0;align=center;html=1;shape=mxgraph.mockup.containers.anchor;rSize=0;fontSize=17;fontColor=#666666;align=left;" vertex="1" parent="gFPZSpNHKlJL1bnIkIFu-27">
          <mxGeometry x="130" y="60" width="250" height="26" as="geometry" />
        </mxCell>
        <mxCell id="gFPZSpNHKlJL1bnIkIFu-30" value="Assets" style="childLayout=tableLayout;recursiveResize=0;strokeColor=#98bf21;fillColor=#A7C942;shadow=1;" vertex="1" parent="gFPZSpNHKlJL1bnIkIFu-27">
          <mxGeometry x="115" y="140" width="280" height="160" as="geometry" />
        </mxCell>
        <mxCell id="gFPZSpNHKlJL1bnIkIFu-31" style="shape=tableRow;horizontal=0;startSize=0;swimlaneHead=0;swimlaneBody=0;top=0;left=0;bottom=0;right=0;dropTarget=0;collapsible=0;recursiveResize=0;expand=0;fontStyle=0;strokeColor=inherit;fillColor=#ffffff;" vertex="1" parent="gFPZSpNHKlJL1bnIkIFu-30">
          <mxGeometry width="280" height="33" as="geometry" />
        </mxCell>
        <mxCell id="gFPZSpNHKlJL1bnIkIFu-32" value="Pianeta" style="connectable=0;recursiveResize=0;strokeColor=inherit;fillColor=#A7C942;align=center;fontStyle=1;fontColor=#FFFFFF;html=1;" vertex="1" parent="gFPZSpNHKlJL1bnIkIFu-31">
          <mxGeometry width="93" height="33" as="geometry">
            <mxRectangle width="93" height="33" as="alternateBounds" />
          </mxGeometry>
        </mxCell>
        <mxCell id="gFPZSpNHKlJL1bnIkIFu-33" value="KM radius" style="connectable=0;recursiveResize=0;strokeColor=inherit;fillColor=#A7C942;align=center;fontStyle=1;fontColor=#FFFFFF;html=1;" vertex="1" parent="gFPZSpNHKlJL1bnIkIFu-31">
          <mxGeometry x="93" width="94" height="33" as="geometry">
            <mxRectangle width="94" height="33" as="alternateBounds" />
          </mxGeometry>
        </mxCell>
        <mxCell id="gFPZSpNHKlJL1bnIkIFu-34" value="Gassoso" style="connectable=0;recursiveResize=0;strokeColor=inherit;fillColor=#A7C942;align=center;fontStyle=1;fontColor=#FFFFFF;html=1;" vertex="1" parent="gFPZSpNHKlJL1bnIkIFu-31">
          <mxGeometry x="187" width="93" height="33" as="geometry">
            <mxRectangle width="93" height="33" as="alternateBounds" />
          </mxGeometry>
        </mxCell>
        <mxCell id="gFPZSpNHKlJL1bnIkIFu-35" value="" style="shape=tableRow;horizontal=0;startSize=0;swimlaneHead=0;swimlaneBody=0;top=0;left=0;bottom=0;right=0;dropTarget=0;collapsible=0;recursiveResize=0;expand=0;fontStyle=0;strokeColor=inherit;fillColor=#ffffff;" vertex="1" parent="gFPZSpNHKlJL1bnIkIFu-30">
          <mxGeometry y="33" width="280" height="32" as="geometry" />
        </mxCell>
        <mxCell id="gFPZSpNHKlJL1bnIkIFu-36" value="&lt;u&gt;&lt;b&gt;Terra&lt;/b&gt;&lt;/u&gt;" style="connectable=0;recursiveResize=0;strokeColor=inherit;fillColor=inherit;align=center;whiteSpace=wrap;html=1;" vertex="1" parent="gFPZSpNHKlJL1bnIkIFu-35">
          <mxGeometry width="93" height="32" as="geometry">
            <mxRectangle width="93" height="32" as="alternateBounds" />
          </mxGeometry>
        </mxCell>
        <mxCell id="gFPZSpNHKlJL1bnIkIFu-37" value="6000" style="connectable=0;recursiveResize=0;strokeColor=inherit;fillColor=inherit;align=center;whiteSpace=wrap;html=1;" vertex="1" parent="gFPZSpNHKlJL1bnIkIFu-35">
          <mxGeometry x="93" width="94" height="32" as="geometry">
            <mxRectangle width="94" height="32" as="alternateBounds" />
          </mxGeometry>
        </mxCell>
        <mxCell id="gFPZSpNHKlJL1bnIkIFu-38" value="No" style="connectable=0;recursiveResize=0;strokeColor=inherit;fillColor=inherit;align=center;whiteSpace=wrap;html=1;" vertex="1" parent="gFPZSpNHKlJL1bnIkIFu-35">
          <mxGeometry x="187" width="93" height="32" as="geometry">
            <mxRectangle width="93" height="32" as="alternateBounds" />
          </mxGeometry>
        </mxCell>
        <mxCell id="gFPZSpNHKlJL1bnIkIFu-39" value="" style="shape=tableRow;horizontal=0;startSize=0;swimlaneHead=0;swimlaneBody=0;top=0;left=0;bottom=0;right=0;dropTarget=0;collapsible=0;recursiveResize=0;expand=0;fontStyle=1;strokeColor=inherit;fillColor=#EAF2D3;" vertex="1" parent="gFPZSpNHKlJL1bnIkIFu-30">
          <mxGeometry y="65" width="280" height="31" as="geometry" />
        </mxCell>
        <mxCell id="gFPZSpNHKlJL1bnIkIFu-40" value="Value 4" style="connectable=0;recursiveResize=0;strokeColor=inherit;fillColor=inherit;whiteSpace=wrap;html=1;" vertex="1" parent="gFPZSpNHKlJL1bnIkIFu-39">
          <mxGeometry width="93" height="31" as="geometry">
            <mxRectangle width="93" height="31" as="alternateBounds" />
          </mxGeometry>
        </mxCell>
        <mxCell id="gFPZSpNHKlJL1bnIkIFu-41" value="Value 5" style="connectable=0;recursiveResize=0;strokeColor=inherit;fillColor=inherit;whiteSpace=wrap;html=1;" vertex="1" parent="gFPZSpNHKlJL1bnIkIFu-39">
          <mxGeometry x="93" width="94" height="31" as="geometry">
            <mxRectangle width="94" height="31" as="alternateBounds" />
          </mxGeometry>
        </mxCell>
        <mxCell id="gFPZSpNHKlJL1bnIkIFu-42" value="Value 6" style="connectable=0;recursiveResize=0;strokeColor=inherit;fillColor=inherit;whiteSpace=wrap;html=1;" vertex="1" parent="gFPZSpNHKlJL1bnIkIFu-39">
          <mxGeometry x="187" width="93" height="31" as="geometry">
            <mxRectangle width="93" height="31" as="alternateBounds" />
          </mxGeometry>
        </mxCell>
        <mxCell id="gFPZSpNHKlJL1bnIkIFu-43" value="" style="shape=tableRow;horizontal=0;startSize=0;swimlaneHead=0;swimlaneBody=0;top=0;left=0;bottom=0;right=0;dropTarget=0;collapsible=0;recursiveResize=0;expand=0;fontStyle=0;strokeColor=inherit;fillColor=#ffffff;" vertex="1" parent="gFPZSpNHKlJL1bnIkIFu-30">
          <mxGeometry y="96" width="280" height="33" as="geometry" />
        </mxCell>
        <mxCell id="gFPZSpNHKlJL1bnIkIFu-44" value="Value 7" style="connectable=0;recursiveResize=0;strokeColor=inherit;fillColor=inherit;fontStyle=0;align=center;whiteSpace=wrap;html=1;" vertex="1" parent="gFPZSpNHKlJL1bnIkIFu-43">
          <mxGeometry width="93" height="33" as="geometry">
            <mxRectangle width="93" height="33" as="alternateBounds" />
          </mxGeometry>
        </mxCell>
        <mxCell id="gFPZSpNHKlJL1bnIkIFu-45" value="Value 8" style="connectable=0;recursiveResize=0;strokeColor=inherit;fillColor=inherit;fontStyle=0;align=center;whiteSpace=wrap;html=1;" vertex="1" parent="gFPZSpNHKlJL1bnIkIFu-43">
          <mxGeometry x="93" width="94" height="33" as="geometry">
            <mxRectangle width="94" height="33" as="alternateBounds" />
          </mxGeometry>
        </mxCell>
        <mxCell id="gFPZSpNHKlJL1bnIkIFu-46" value="Value 9" style="connectable=0;recursiveResize=0;strokeColor=inherit;fillColor=inherit;fontStyle=0;align=center;whiteSpace=wrap;html=1;" vertex="1" parent="gFPZSpNHKlJL1bnIkIFu-43">
          <mxGeometry x="187" width="93" height="33" as="geometry">
            <mxRectangle width="93" height="33" as="alternateBounds" />
          </mxGeometry>
        </mxCell>
        <mxCell id="gFPZSpNHKlJL1bnIkIFu-47" value="" style="shape=tableRow;horizontal=0;startSize=0;swimlaneHead=0;swimlaneBody=0;top=0;left=0;bottom=0;right=0;dropTarget=0;collapsible=0;recursiveResize=0;expand=0;fontStyle=1;strokeColor=inherit;fillColor=#EAF2D3;" vertex="1" parent="gFPZSpNHKlJL1bnIkIFu-30">
          <mxGeometry y="129" width="280" height="31" as="geometry" />
        </mxCell>
        <mxCell id="gFPZSpNHKlJL1bnIkIFu-48" value="Value 10" style="connectable=0;recursiveResize=0;strokeColor=inherit;fillColor=inherit;whiteSpace=wrap;html=1;" vertex="1" parent="gFPZSpNHKlJL1bnIkIFu-47">
          <mxGeometry width="93" height="31" as="geometry">
            <mxRectangle width="93" height="31" as="alternateBounds" />
          </mxGeometry>
        </mxCell>
        <mxCell id="gFPZSpNHKlJL1bnIkIFu-49" value="Value 11" style="connectable=0;recursiveResize=0;strokeColor=inherit;fillColor=inherit;whiteSpace=wrap;html=1;" vertex="1" parent="gFPZSpNHKlJL1bnIkIFu-47">
          <mxGeometry x="93" width="94" height="31" as="geometry">
            <mxRectangle width="94" height="31" as="alternateBounds" />
          </mxGeometry>
        </mxCell>
        <mxCell id="gFPZSpNHKlJL1bnIkIFu-50" value="Value 12" style="connectable=0;recursiveResize=0;strokeColor=inherit;fillColor=inherit;whiteSpace=wrap;html=1;" vertex="1" parent="gFPZSpNHKlJL1bnIkIFu-47">
          <mxGeometry x="187" width="93" height="31" as="geometry">
            <mxRectangle width="93" height="31" as="alternateBounds" />
          </mxGeometry>
        </mxCell>
        <mxCell id="gFPZSpNHKlJL1bnIkIFu-105" value="view" style="rounded=1;fillColor=#0057D8;strokeColor=none;html=1;whiteSpace=wrap;fontColor=#ffffff;align=center;verticalAlign=middle;fontStyle=0;fontSize=12;sketch=0;" vertex="1" parent="gFPZSpNHKlJL1bnIkIFu-27">
          <mxGeometry x="410" y="173.5" width="50" height="33" as="geometry" />
        </mxCell>
        <mxCell id="gFPZSpNHKlJL1bnIkIFu-106" value="delete" style="rounded=1;fillColor=#f8cecc;strokeColor=#b85450;html=1;whiteSpace=wrap;align=center;verticalAlign=middle;fontStyle=0;fontSize=12;sketch=0;" vertex="1" parent="gFPZSpNHKlJL1bnIkIFu-27">
          <mxGeometry x="470" y="173.5" width="50" height="33" as="geometry" />
        </mxCell>
        <mxCell id="gFPZSpNHKlJL1bnIkIFu-51" value="" style="strokeWidth=1;shadow=0;dashed=0;align=center;html=1;shape=mxgraph.mockup.containers.browserWindow;rSize=0;strokeColor=#666666;strokeColor2=#008cff;strokeColor3=#c4c4c4;mainText=,;recursiveResize=0;" vertex="1" parent="1">
          <mxGeometry x="90" y="960" width="550" height="380" as="geometry" />
        </mxCell>
        <mxCell id="gFPZSpNHKlJL1bnIkIFu-52" value="Page 1" style="strokeWidth=1;shadow=0;dashed=0;align=center;html=1;shape=mxgraph.mockup.containers.anchor;fontSize=17;fontColor=#666666;align=left;whiteSpace=wrap;" vertex="1" parent="gFPZSpNHKlJL1bnIkIFu-51">
          <mxGeometry x="60" y="12" width="110" height="26" as="geometry" />
        </mxCell>
        <mxCell id="gFPZSpNHKlJL1bnIkIFu-53" value="https://www.draw.io" style="strokeWidth=1;shadow=0;dashed=0;align=center;html=1;shape=mxgraph.mockup.containers.anchor;rSize=0;fontSize=17;fontColor=#666666;align=left;" vertex="1" parent="gFPZSpNHKlJL1bnIkIFu-51">
          <mxGeometry x="130" y="60" width="250" height="26" as="geometry" />
        </mxCell>
        <mxCell id="gFPZSpNHKlJL1bnIkIFu-75" value="&lt;b&gt;&lt;font style=&quot;font-size: 20px&quot;&gt;Pianeta Terra&lt;/font&gt;&lt;/b&gt;&lt;font color=&quot;#6c767d&quot;&gt;&lt;b&gt;&lt;font style=&quot;font-size: 14px&quot;&gt;&lt;br style=&quot;font-size: 10px&quot;&gt;Card subtitle&lt;br&gt;&lt;/font&gt;&lt;/b&gt;&lt;/font&gt;&lt;br style=&quot;font-size: 14px&quot;&gt;Some quick example text to build on the card title and make up the bulk of the card&#39;s content." style="html=1;shadow=0;dashed=0;shape=mxgraph.bootstrap.rrect;rSize=5;strokeColor=#DFDFDF;html=1;whiteSpace=wrap;fillColor=#ffffff;fontColor=#000000;verticalAlign=top;align=left;spacing=20;fontSize=14;" vertex="1" parent="gFPZSpNHKlJL1bnIkIFu-51">
          <mxGeometry x="74" y="130" width="250" height="190" as="geometry" />
        </mxCell>
        <mxCell id="gFPZSpNHKlJL1bnIkIFu-76" value="Elenco" style="html=1;shadow=0;dashed=0;shape=mxgraph.bootstrap.rrect;rSize=5;perimeter=none;whiteSpace=wrap;fillColor=none;strokeColor=none;fontColor=#0085FC;resizeWidth=1;fontSize=14;align=center;" vertex="1" parent="gFPZSpNHKlJL1bnIkIFu-75">
          <mxGeometry y="1" width="80" height="40" relative="1" as="geometry">
            <mxPoint x="10" y="-50" as="offset" />
          </mxGeometry>
        </mxCell>
        <mxCell id="gFPZSpNHKlJL1bnIkIFu-77" value="Acquista" style="html=1;shadow=0;dashed=0;shape=mxgraph.bootstrap.rrect;rSize=5;perimeter=none;whiteSpace=wrap;fillColor=none;strokeColor=none;fontColor=#0085FC;resizeWidth=1;fontSize=14;align=center;" vertex="1" parent="gFPZSpNHKlJL1bnIkIFu-75">
          <mxGeometry y="1" width="100" height="40" relative="1" as="geometry">
            <mxPoint x="100" y="-50" as="offset" />
          </mxGeometry>
        </mxCell>
        <mxCell id="gFPZSpNHKlJL1bnIkIFu-78" value="" style="strokeWidth=1;shadow=0;dashed=0;align=center;html=1;shape=mxgraph.mockup.containers.browserWindow;rSize=0;strokeColor=#666666;strokeColor2=#008cff;strokeColor3=#c4c4c4;mainText=,;recursiveResize=0;" vertex="1" parent="1">
          <mxGeometry x="90" y="1360" width="550" height="530" as="geometry" />
        </mxCell>
        <mxCell id="gFPZSpNHKlJL1bnIkIFu-79" value="Page 1" style="strokeWidth=1;shadow=0;dashed=0;align=center;html=1;shape=mxgraph.mockup.containers.anchor;fontSize=17;fontColor=#666666;align=left;whiteSpace=wrap;" vertex="1" parent="gFPZSpNHKlJL1bnIkIFu-78">
          <mxGeometry x="60" y="12" width="110" height="26" as="geometry" />
        </mxCell>
        <mxCell id="gFPZSpNHKlJL1bnIkIFu-80" value="https://www.draw.io" style="strokeWidth=1;shadow=0;dashed=0;align=center;html=1;shape=mxgraph.mockup.containers.anchor;rSize=0;fontSize=17;fontColor=#666666;align=left;" vertex="1" parent="gFPZSpNHKlJL1bnIkIFu-78">
          <mxGeometry x="130" y="60" width="250" height="26" as="geometry" />
        </mxCell>
        <mxCell id="gFPZSpNHKlJL1bnIkIFu-100" value="Add" style="rounded=1;fillColor=#0057D8;strokeColor=none;html=1;whiteSpace=wrap;fontColor=#ffffff;align=center;verticalAlign=middle;fontStyle=0;fontSize=12;sketch=0;" vertex="1" parent="gFPZSpNHKlJL1bnIkIFu-78">
          <mxGeometry x="300" y="450" width="86" height="33" as="geometry" />
        </mxCell>
        <mxCell id="gFPZSpNHKlJL1bnIkIFu-84" value="Add new Planet" style="fillColor=none;strokeColor=none;align=left;fontSize=14;" vertex="1" parent="1">
          <mxGeometry x="170" y="1490" width="300" height="40" as="geometry" />
        </mxCell>
        <mxCell id="gFPZSpNHKlJL1bnIkIFu-85" value="nome pianeta" style="html=1;shadow=0;dashed=0;shape=mxgraph.bootstrap.rrect;rSize=5;fillColor=none;strokeColor=#999999;align=left;spacing=15;fontSize=14;fontColor=#6C767D;" vertex="1" parent="1">
          <mxGeometry width="300" height="30" relative="1" as="geometry">
            <mxPoint x="170" y="1530" as="offset" />
          </mxGeometry>
        </mxCell>
        <mxCell id="gFPZSpNHKlJL1bnIkIFu-86" value="Dimensione" style="fillColor=none;strokeColor=none;align=left;fontSize=14;" vertex="1" parent="1">
          <mxGeometry width="300" height="40" relative="1" as="geometry">
            <mxPoint x="170" y="1570" as="offset" />
          </mxGeometry>
        </mxCell>
        <mxCell id="gFPZSpNHKlJL1bnIkIFu-87" value="dimensione" style="html=1;shadow=0;dashed=0;shape=mxgraph.bootstrap.rrect;rSize=5;fillColor=none;strokeColor=#999999;align=left;spacing=15;fontSize=14;fontColor=#6C767D;" vertex="1" parent="1">
          <mxGeometry width="300" height="30" relative="1" as="geometry">
            <mxPoint x="170" y="1610" as="offset" />
          </mxGeometry>
        </mxCell>
        <mxCell id="gFPZSpNHKlJL1bnIkIFu-98" value="Example textarea" style="fillColor=none;strokeColor=none;align=left;fontSize=14;" vertex="1" parent="1">
          <mxGeometry width="300" height="40" relative="1" as="geometry">
            <mxPoint x="170" y="1660" as="offset" />
          </mxGeometry>
        </mxCell>
        <mxCell id="gFPZSpNHKlJL1bnIkIFu-99" value="" style="html=1;shadow=0;dashed=0;shape=mxgraph.bootstrap.rrect;rSize=5;fillColor=none;strokeColor=#999999;align=left;spacing=15;fontSize=14;fontColor=#6C767D;" vertex="1" parent="1">
          <mxGeometry width="300" height="90" relative="1" as="geometry">
            <mxPoint x="170" y="1700" as="offset" />
          </mxGeometry>
        </mxCell>
      </root>
    </mxGraphModel>
  </diagram>
</mxfile>
